<svg xmlns="http://www.w3.org/2000/svg" width="1200" height="650" viewBox="0 0 1200 650" role="img" aria-hidden="true">
<defs><linearGradient id="sky" x1="0" x2="1" y1="0" y2="1"><stop stop-color="#d7edf6"/><stop offset=".55" stop-color="#fff4cc"/><stop offset="1" stop-color="#f2c987"/></linearGradient><linearGradient id="blue" x1="0" x2="1"><stop stop-color="#00345f"/><stop offset="1" stop-color="#00457c"/></linearGradient><filter id="sh" x="-20%" y="-20%" width="140%" height="140%"><feDropShadow dx="0" dy="9" stdDeviation="8" flood-color="#00345f" flood-opacity=".18"/></filter><pattern id="grain" width="7" height="7" patternUnits="userSpaceOnUse"><circle cx="1" cy="1" r=".7" fill="#5a4326" opacity=".14"/></pattern></defs>
<rect width="1200" height="650" rx="20" fill="url(#sky)"/><rect width="1200" height="650" rx="20" fill="url(#grain)"/><circle cx="1000" cy="92" r="68" fill="#f4c45d" opacity=".85"/><path d="M508 250 C650 104 805 102 940 254 C820 216 690 218 508 250Z" fill="#c5d4c4"/><path d="M620 242 C758 94 910 110 1090 270 C920 232 810 235 620 242Z" fill="#d8c9a4" opacity=".9"/><path d="M705 93 l142 34 -118 23 34 40 -62 -31 -75 11z" fill="#00457c" opacity=".75"/><path d="M0 486 C170 420 305 448 470 490 C650 536 840 442 1200 482 L1200 650 L0 650Z" fill="#f0ddb5"/><path d="M0 565 C260 512 520 542 710 568 C910 594 1040 536 1200 560 L1200 650 L0 650Z" fill="#d4c49d" opacity=".5"/>
<g opacity=".9"><rect x="760" y="270" width="58" height="165" fill="#00345f"/><rect x="840" y="235" width="48" height="200" fill="#00457c"/><rect x="922" y="295" width="62" height="140" fill="#00345f"/><path d="M748 270 h258" stroke="#c84a2a" stroke-width="16"/><path d="M788 248 c28-60 84-64 118-12" stroke="#00345f" stroke-width="13" fill="none"/><path d="M738 438 h318" stroke="#00345f" stroke-width="14" stroke-linecap="round"/><path d="M846 190 c58-46 110-31 141 34" stroke="#ffffff" stroke-width="13" fill="none" opacity=".5"/></g>
<g filter="url(#sh)"><path d="M444 418 c110-30 228-16 344 32" stroke="#00457c" stroke-width="24" fill="none" stroke-linecap="round"/><path d="M438 421 c112-42 230-26 356 31" stroke="#76b82a" stroke-width="11" fill="none" stroke-linecap="round"/></g>
<g transform="translate(520 342) scale(1.05)" filter="url(#sh)"><circle r="34" fill="#efb284"/><path d="M-43 54 Q0 24 43 54 L62 148 H-62Z" fill="#00457c"/><path d="M-36 -10 Q-18 -54 18 -48 Q50 -38 42 -6 Q8 -22 -36 -10Z" fill="#7c532d"/><path d="M-8 18 Q2 26 14 17" stroke="#9b4a35" stroke-width="4" fill="none" stroke-linecap="round"/></g>
<g transform="translate(630 358) scale(.95)" filter="url(#sh)"><circle r="34" fill="#efb284"/><path d="M-43 54 Q0 24 43 54 L62 148 H-62Z" fill="#c84a2a"/><path d="M-42 -9 Q-12 -60 28 -44 Q54 -24 34 4 Q0 -22 -42 -9Z" fill="#6f3f62"/><path d="M-8 18 Q2 26 14 17" stroke="#9b4a35" stroke-width="4" fill="none" stroke-linecap="round"/></g>
<g filter="url(#sh)"><rect x="655" y="432" width="170" height="82" rx="13" fill="#fff8e8" stroke="#00345f" stroke-width="9"/><path d="M685 464 h105 M685 490 h72" stroke="#c84a2a" stroke-width="8" stroke-linecap="round"/></g>
<path d="M980 428 C1040 390 1090 395 1160 426" stroke="#00457c" stroke-width="9" opacity=".35" fill="none"/><text x="748" y="555" fill="#00345f" font-family="Arial Narrow,Arial,sans-serif" font-size="32" font-weight="900" opacity=".55">ГАЗСТРОЙПРОМ</text></svg>