<svg xmlns="http://www.w3.org/2000/svg" width="760" height="570" viewBox="0 0 760 570" role="img" aria-hidden="true">
  <defs>
    <linearGradient id="sky" x1="0" x2="1" y1="0" y2="1"><stop stop-color="#DCEFF5"/><stop offset="1" stop-color="#FFF1C7"/></linearGradient>
    <linearGradient id="blue" x1="0" x2="1"><stop stop-color="#00345F"/><stop offset="1" stop-color="#00457C"/></linearGradient>
    <filter id="s" x="-20%" y="-20%" width="140%" height="140%"><feDropShadow dx="0" dy="8" stdDeviation="8" flood-color="#00345F" flood-opacity=".16"/></filter>
  </defs>
  <rect width="100%" height="100%" fill="url(#sky)"/>
  <circle cx="760" cy="100" r="58" fill="#F4C45D" opacity=".85"/>
  <path d="M0 520 C140 455 250 468 378 512 C520 560 660 492 900 535 L900 650 L0 650Z" fill="#F7F0DF"/>
  <path d="M0 560 C180 520 290 548 430 578 C610 614 720 552 900 575 L900 650 L0 650Z" fill="#E5D7B8" opacity=".65"/>
  
  <g filter="url(#s)">
  <path d="M305 332 c0-34 28-62 62-62s62 28 62 62-28 62-62 62-62-28-62-62z" fill="#F0B38E"/>
  <path d="M204 372 c0-28 23-51 51-51s51 23 51 51-23 51-51 51-51-23-51-51z" fill="#F0B38E"/>
  <path d="M455 382 c0-26 21-47 47-47s47 21 47 47-21 47-47 47-47-21-47-47z" fill="#F0B38E"/><path d="M250 462 c54-58 179-58 234 0 v64 h-234z" fill="#00457C"/><path d="M155 500 c33-55 99-62 145-20 v46 h-145z M470 500 c30-46 86-52 126-16 v42 h-126z" fill="#C84A2A"/>
  </g>
  <path d="M108 220 l12 24 27 4-20 19 5 27-24-13-24 13 5-27-20-19 27-4z" fill="#C84A2A"/>

</svg>