<svg xmlns="http://www.w3.org/2000/svg" width="760" height="570" viewBox="0 0 760 570" role="img" aria-hidden="true"><defs><linearGradient id="sky" x1="0" x2="1" y1="0" y2="1"><stop stop-color="#d9f0f7"/><stop offset="1" stop-color="#fff0c7"/></linearGradient><linearGradient id="blue" x1="0" x2="1"><stop stop-color="#003763"/><stop offset="1" stop-color="#0060ad"/></linearGradient><filter id="sh" x="-20%" y="-20%" width="140%" height="140%"><feDropShadow dx="0" dy="8" stdDeviation="7" flood-color="#003763" flood-opacity=".15"/></filter></defs><rect width="760" height="570" rx="18" fill="url(#sky)"/><circle cx="650" cy="92" r="54" fill="#f4c45d" opacity=".85"/><path d="M0 438 C130 380 238 405 336 438 C460 480 590 412 760 444 L760 570 L0 570Z" fill="#f0ddb5"/><path d="M0 500 C152 454 300 486 436 510 C570 534 650 482 760 504 L760 570 L0 570Z" fill="#d4c49d" opacity=".45"/><g transform="translate(250 274) scale(0.96)" filter="url(#sh)"><circle cx="0" cy="0" r="34" fill="#efb284"/><path d="M-43 54 Q0 24 43 54 L62 148 H-62Z" fill="#00539b"/><path d="M-35 -16 Q4 -58 43 -16 Q12 -26 -35 -16Z" fill="#7c532d"/></g><path d="M217 216 h70 v32 h-70z" fill="#003763"/><circle cx="230" cy="232" r="24" fill="none" stroke="#003763" stroke-width="11"/><circle cx="274" cy="232" r="24" fill="none" stroke="#003763" stroke-width="11"/><path d="M444 214 h34 v190 h-34z M508 174 h38 v230 h-38z M574 250 h30 v154 h-30z" fill="#003763"/><path d="M410 404 C486 386 574 386 656 404" stroke="#cf4328" stroke-width="15" stroke-linecap="round" fill="none"/><path d="M416 198 C470 165 526 190 580 154" stroke="#f4c45d" stroke-width="11" stroke-linecap="round" fill="none"/><text x="38" y="62" fill="#003763" font-family="Arial Narrow,Arial,sans-serif" font-size="34" font-weight="900" letter-spacing="1">ПРОФОРИЕНТАЦИЯ</text><path d="M36 84 H286" stroke="#cf4328" stroke-width="8" stroke-linecap="round" opacity=".85"/></svg>