<svg xmlns="http://www.w3.org/2000/svg" width="760" height="570" viewBox="0 0 760 570" role="img" aria-hidden="true"><defs><linearGradient id="b" x1="0" x2="1" y1="0" y2="1"><stop stop-color="#00345f"/><stop offset="1" stop-color="#0062a7"/></linearGradient><filter id="sh" x="-20%" y="-20%" width="140%" height="140%"><feDropShadow dx="0" dy="8" stdDeviation="7" flood-color="#001d35" flood-opacity=".23"/></filter></defs><rect width="760" height="570" rx="18" fill="url(#b)"/><g fill="#fff8e8" opacity=".94"><path d="M94 90l10 22 24 3-18 16 5 23-21-12-21 12 5-23-18-16 24-3z"/><circle cx="664" cy="225" r="8"/><circle cx="112" cy="286" r="6"/><circle cx="592" cy="342" r="6"/><circle cx="344" cy="108" r="5"/><circle cx="676" cy="80" r="5"/></g><path d="M520 105 c70 36 114 100 132 188 l-47-20 -31 45 c-6-90-35-157-54-213z" fill="#c84a2a"/><circle cx="564" cy="174" r="20" fill="#d9f0f7"/><path d="M532 296 l-26 58 66-32" fill="#f4c45d"/><g filter="url(#sh)"><rect x="272" y="126" width="268" height="182" rx="18" fill="#edf3f3" stroke="#fff" stroke-width="12"/><rect x="302" y="160" width="208" height="118" rx="8" fill="#fff8e8"/><circle cx="406" cy="205" r="34" fill="#efb284"/><path d="M352 266 q54-42 108 0" fill="#00457c"/><path d="M330 300 h150 l44 76 H286z" fill="#00345f"/></g><g transform="translate(206 330) scale(.95)" filter="url(#sh)"><circle r="34" fill="#efb284"/><path d="M-43 54 Q0 24 43 54 L62 148 H-62Z" fill="#76b82a"/><path d="M-35 -16 Q4 -58 43 -16 Q12 -26 -35 -16Z" fill="#7c532d"/></g><rect x="116" y="420" width="310" height="42" rx="10" fill="#fff8e8"/><path d="M144 442 h246" stroke="#00345f" stroke-width="9" stroke-linecap="round"/><g transform="translate(586 366)"><circle r="70" fill="#76b82a" stroke="#fff" stroke-width="9"/><text x="0" y="11" text-anchor="middle" fill="#fff" font-family="Arial" font-size="42" font-weight="900">-20%</text></g><text x="58" y="74" fill="#fff" font-family="Arial Rounded MT Bold,Arial,sans-serif" font-size="54" font-weight="900">▶ skysmart</text></svg>