<svg xmlns="http://www.w3.org/2000/svg" width="760" height="570" viewBox="0 0 760 570" role="img" aria-hidden="true">
  <defs>
    <linearGradient id="sky" x1="0" x2="1" y1="0" y2="1"><stop stop-color="#dceff5"/><stop offset=".58" stop-color="#fff4cf"/><stop offset="1" stop-color="#f7d9a5"/></linearGradient>
    <linearGradient id="blue" x1="0" x2="1"><stop stop-color="#00345f"/><stop offset="1" stop-color="#00457c"/></linearGradient>
    <filter id="sh" x="-20%" y="-20%" width="140%" height="140%"><feDropShadow dx="0" dy="8" stdDeviation="7" flood-color="#00345f" flood-opacity=".16"/></filter>
    <pattern id="grain" width="7" height="7" patternUnits="userSpaceOnUse"><circle cx="1" cy="1" r=".7" fill="#5a4326" opacity=".16"/></pattern>
  </defs>
  <rect width="760" height="570" rx="18" fill="url(#sky)"/>
  <rect width="760" height="570" rx="18" fill="url(#grain)" opacity=".55"/>
  <circle cx="650" cy="92" r="54" fill="#f4c45d" opacity=".86"/>
  <path d="M0 438 C130 380 238 405 336 438 C460 480 590 412 760 444 L760 570 L0 570Z" fill="#f0ddb5"/>
  <path d="M0 500 C152 454 300 486 436 510 C570 534 650 482 760 504 L760 570 L0 570Z" fill="#d4c49d" opacity=".45"/>
  <path d="M90 148 h168 m-132 28 h225" stroke="#00457c" stroke-width="5" stroke-linecap="round" opacity=".16"/>
  <g transform="translate(380 245) scale(1.35)" filter="url(#sh)"><circle cx="0" cy="0" r="34" fill="#efb284"/><path d="M-43 54 Q0 24 43 54 L62 148 H-62Z" fill="#00457c"/><path d="M-37 -10 Q-22 -56 12 -48 Q48 -40 43 -7 Q10 -23 -37 -10Z" fill="#7c532d"/><circle cx="-12" cy="3" r="3" fill="#00345f"/><circle cx="13" cy="3" r="3" fill="#00345f"/><path d="M-10 18 Q0 26 12 18" stroke="#9b4a35" stroke-width="4" fill="none" stroke-linecap="round"/></g><rect x="180" y="392" width="400" height="72" rx="14" fill="#fff8e8" stroke="#c84a2a" stroke-width="8"/><path d="M230 428 h300" stroke="#00345f" stroke-width="10" stroke-linecap="round"/>
  <text x="38" y="62" fill="#00345f" font-family="Arial Narrow,Arial,sans-serif" font-size="34" font-weight="900" letter-spacing="1">ИСТОРИЯ</text>
  <path d="M36 84 H286" stroke="#c84a2a" stroke-width="8" stroke-linecap="round" opacity=".86"/>
</svg>