<svg xmlns="http://www.w3.org/2000/svg" width="900" height="650" viewBox="0 0 900 650" role="img" aria-hidden="true">
  <defs>
    <linearGradient id="sky" x1="0" x2="1" y1="0" y2="1"><stop stop-color="#DCEFF5"/><stop offset="1" stop-color="#FFF1C7"/></linearGradient>
    <linearGradient id="blue" x1="0" x2="1"><stop stop-color="#00345F"/><stop offset="1" stop-color="#00457C"/></linearGradient>
    <filter id="s" x="-20%" y="-20%" width="140%" height="140%"><feDropShadow dx="0" dy="8" stdDeviation="8" flood-color="#00345F" flood-opacity=".16"/></filter>
  </defs>
  <rect width="100%" height="100%" fill="url(#sky)"/>
  <circle cx="760" cy="100" r="58" fill="#F4C45D" opacity=".85"/>
  <path d="M0 520 C140 455 250 468 378 512 C520 560 660 492 900 535 L900 650 L0 650Z" fill="#F7F0DF"/>
  <path d="M0 560 C180 520 290 548 430 578 C610 614 720 552 900 575 L900 650 L0 650Z" fill="#E5D7B8" opacity=".65"/>
  
  <path d="M98 364 C155 302 234 282 310 322 C370 354 424 330 472 290 C540 232 624 226 704 282 C760 321 804 366 860 378 L860 545 L98 545Z" fill="#F7E4B7" opacity=".9"/>
  <path d="M580 236 h28 v168 h-28z M632 194 h32 v210 h-32z M684 255 h28 v149 h-28z" fill="#00457C" opacity=".82"/>
  <path d="M548 404 C630 386 718 386 820 404" fill="none" stroke="#00457C" stroke-width="18" stroke-linecap="round" opacity=".82"/>
  <path d="M570 216 C598 198 626 202 654 184 C688 162 724 162 760 182" fill="none" stroke="#C84A2A" stroke-width="10" stroke-linecap="round" opacity=".62"/>
  <g filter="url(#s)">
    <circle cx="292" cy="306" r="36" fill="#F0B38E"/><path d="M255 354 h76 l32 138 h-140z" fill="#00457C"/><path d="M236 390 c-44 15-78 52-89 102" stroke="#C84A2A" stroke-width="18" stroke-linecap="round" fill="none"/><path d="M341 389 c45 21 78 55 102 103" stroke="#76B82A" stroke-width="18" stroke-linecap="round" fill="none"/><path d="M252 276 c40-36 86-24 94 26 c-32-14-58-16-94-26z" fill="#6E4C2F"/>
    <circle cx="410" cy="342" r="30" fill="#F0B38E"/><path d="M378 382 h64 l28 110 h-124z" fill="#C84A2A"/><path d="M384 315 c28-32 70-20 79 19 c-24-10-48-12-79-19z" fill="#6E4C2F"/>
    <path d="M178 500 c86-42 186-44 290-8" stroke="#00345F" stroke-width="12" stroke-linecap="round" fill="none" opacity=".22"/>
  </g>
  <path d="M80 212 l18 36 40 6-29 28 7 39-36-18-35 18 7-39-29-28 40-6z" fill="#C84A2A" opacity=".9"/>

</svg>