<svg xmlns="http://www.w3.org/2000/svg" viewBox="0 0 800 600" role="img" aria-label="Иллюстрация детских программ Газстройпрома">
  <defs>
    <linearGradient id="sky" x1="0" y1="0" x2="1" y2="1">
      <stop offset="0" stop-color="#d8ecf8"/>
      <stop offset="1" stop-color="#fff4d9"/>
    </linearGradient>
    <filter id="paper">
      <feTurbulence type="fractalNoise" baseFrequency="0.9" numOctaves="3" stitchTiles="stitch"/>
      <feColorMatrix type="saturate" values="0"/>
      <feComponentTransfer><feFuncA type="table" tableValues="0 0.08"/></feComponentTransfer>
      <feBlend mode="multiply" in2="SourceGraphic"/>
    </filter>
  </defs>
  <rect width="800" height="600" rx="32" fill="url(#sky)"/>
  <rect width="800" height="600" rx="32" fill="#f7edda" opacity="0.35" filter="url(#paper)"/>
  <circle cx="130" cy="120" r="46" fill="#e4582f"/>
  <path d="M125 48l13 47 48-8-40 28 23 43-39-29-36 32 16-45-42-24 49 2z" fill="#0b4f8f" opacity="0.9"/>
  <path d="M68 430c90-78 174-70 250-18 83 56 163 53 247-6 64-45 112-47 171-16v154H68z" fill="#0b4f8f" opacity="0.16"/>
  <path d="M98 472h620" stroke="#0b4f8f" stroke-width="10" stroke-linecap="round" opacity="0.35"/>
  <g fill="none" stroke="#0b4f8f" stroke-width="12" stroke-linecap="round" stroke-linejoin="round">
    <path d="M284 326l76-102 74 102"/>
    <path d="M322 326v-64h76v64"/>
    <path d="M474 326V176h42v150"/>
    <path d="M544 326V212h38v114"/>
    <path d="M610 326v-78h34v78"/>
  </g>
  <g fill="#8bbb36">
    <circle cx="251" cy="346" r="25"/>
    <circle cx="680" cy="352" r="21"/>
    <circle cx="174" cy="362" r="18"/>
  </g>
  <text x="400" y="122" text-anchor="middle" font-family="Arial, sans-serif" font-size="42" font-weight="700" fill="#0b4f8f">Детские программы</text>
  <text x="400" y="176" text-anchor="middle" font-family="Arial, sans-serif" font-size="25" fill="#0b4f8f">Газстройпром</text>
</svg>
