<svg xmlns="http://www.w3.org/2000/svg" width="760" height="570" viewBox="0 0 760 570" role="img" aria-hidden="true">
  <defs>
    <linearGradient id="sky" x1="0" x2="1" y1="0" y2="1"><stop stop-color="#DCEFF5"/><stop offset="1" stop-color="#FFF1C7"/></linearGradient>
    <linearGradient id="blue" x1="0" x2="1"><stop stop-color="#00345F"/><stop offset="1" stop-color="#00457C"/></linearGradient>
    <filter id="s" x="-20%" y="-20%" width="140%" height="140%"><feDropShadow dx="0" dy="8" stdDeviation="8" flood-color="#00345F" flood-opacity=".16"/></filter>
  </defs>
  <rect width="100%" height="100%" fill="url(#sky)"/>
  <circle cx="760" cy="100" r="58" fill="#F4C45D" opacity=".85"/>
  <path d="M0 520 C140 455 250 468 378 512 C520 560 660 492 900 535 L900 650 L0 650Z" fill="#F7F0DF"/>
  <path d="M0 560 C180 520 290 548 430 578 C610 614 720 552 900 575 L900 650 L0 650Z" fill="#E5D7B8" opacity=".65"/>
  
  <g filter="url(#s)"><circle cx="355" cy="220" r="70" fill="#F0B38E"/><path d="M290 195 c48-70 140-46 154 28-52-18-96-18-154-28z" fill="#6E4C2F"/><path d="M260 310 h190 c50 0 90 40 90 90 v56 h-370 v-56 c0-50 40-90 90-90z" fill="#C84A2A"/><rect x="190" y="390" width="420" height="160" rx="20" fill="#FFF8E8" stroke="#00457C" stroke-width="12"/><path d="M300 470 h205" stroke="#76B82A" stroke-width="16" stroke-linecap="round"/><circle cx="255" cy="470" r="19" fill="#F4C45D"/></g>

</svg>